<?xml version="1.0" encoding="UTF-8"?>
<svg version="1.1" xmlns="http://www.w3.org/2000/svg" width="50" height="50">
<path d="M0 0 C-0.51006598 4.1724031 -1.59504611 6.08024151 -4.59765625 8.98828125 C-5.31630859 9.69404297 -6.03496094 10.39980469 -6.77539062 11.12695312 C-7.53013672 11.84818359 -8.28488281 12.56941406 -9.0625 13.3125 C-9.82111328 14.05306641 -10.57972656 14.79363281 -11.36132812 15.55664062 C-13.23219159 17.38043834 -15.11174492 19.19424304 -17 21 C-15.61457124 24.14940886 -14.02112156 26.17880285 -11.5234375 28.53125 C-10.853125 29.17707031 -10.1828125 29.82289062 -9.4921875 30.48828125 C-8.07661811 31.83333335 -6.65731513 33.17446663 -5.234375 34.51171875 C-4.56664063 35.15753906 -3.89890625 35.80335937 -3.2109375 36.46875 C-2.59524902 37.05076172 -1.97956055 37.63277344 -1.34521484 38.23242188 C0 40 0 40 0 44 C-4.66251557 43.53193423 -6.63571186 41.83820526 -9.86328125 38.52734375 C-10.74951172 37.62822266 -11.63574219 36.72910156 -12.54882812 35.80273438 C-13.9168457 34.38444336 -13.9168457 34.38444336 -15.3125 32.9375 C-16.25232276 31.97760179 -17.19306889 31.01860671 -18.13476562 30.06054688 C-20.43242024 27.71576088 -22.7202276 25.36215473 -25 23 C-22.58491356 17.37600148 -17.88297649 13.51427527 -13.625 9.25 C-12.32949219 7.91775391 -12.32949219 7.91775391 -11.0078125 6.55859375 C-10.1725 5.71941406 -9.3371875 4.88023437 -8.4765625 4.015625 C-7.71424316 3.24508789 -6.95192383 2.47455078 -6.16650391 1.68066406 C-4 0 -4 0 0 0 Z " fill="#000000" transform="translate(37,3)"/>
</svg>
