<?xml version="1.0" encoding="UTF-8"?>
<svg version="1.1" xmlns="http://www.w3.org/2000/svg" width="512" height="512">
<path d="M0 0 C2.65527344 1.25244141 2.65527344 1.25244141 5.359375 2.8515625 C6.88884766 3.74584961 6.88884766 3.74584961 8.44921875 4.65820312 C10.08310547 5.63176758 10.08310547 5.63176758 11.75 6.625 C12.90697352 7.30502178 14.06453713 7.98404047 15.22265625 8.66210938 C17.62665148 10.07067324 20.02805773 11.48350641 22.42773438 12.89941406 C27.9283488 16.14016978 33.46603409 19.31666323 39 22.5 C41.16684034 23.74969892 43.3335065 24.99969989 45.5 26.25 C47.10875 27.178125 47.10875 27.178125 48.75 28.125 C78 45 107.25 61.875 136.5 78.75 C137.57266113 79.36883057 138.64532227 79.98766113 139.75048828 80.62524414 C141.91557071 81.87435518 144.08060982 83.12354129 146.24560547 84.37280273 C151.68615706 87.51202309 157.12747216 90.64990563 162.5703125 93.78515625 C197.23585746 113.75894134 197.23585746 113.75894134 203.02723312 117.35561275 C205.9366049 119.09284273 205.9366049 119.09284273 209.11497879 119.98501682 C213.07518805 121.47918907 215.19779194 122.78993068 218 126 C220.40580885 133.75108848 219.51058033 142.47077283 219.36230469 150.47827148 C219.3589193 153.02114196 219.36082078 155.56402417 219.36761475 158.10688782 C219.37034618 163.57902723 219.33635448 169.04897074 219.26876068 174.52065849 C219.17110247 182.43120904 219.13997083 190.3409301 219.12490478 198.2520181 C219.09866115 211.08767297 219.01885885 223.92241109 218.90527344 236.75756836 C218.79507183 249.22334211 218.71015785 261.68886658 218.65917969 274.1550293 C218.65602701 274.92383509 218.65287432 275.69264089 218.64962611 276.48474383 C218.6339653 280.3417382 218.61880089 284.19873434 218.60388327 288.05573165 C218.47954494 320.03782065 218.26824439 352.01878291 218 384 C133.5 432.75 133.5 432.75 130.24951172 434.62524414 C128.08442929 435.87435518 125.91939018 437.12354129 123.75439453 438.37280273 C118.31384294 441.51202309 112.87252784 444.64990563 107.4296875 447.78515625 C96.97793801 453.80747329 86.53700452 459.84669337 76.125 465.9375 C66.85903466 471.35685334 57.55007991 476.69795389 48.22363281 482.01217651 C39.83046855 486.7956841 31.4656164 491.6252791 23.125 496.5 C22.13773926 497.07435791 21.15047852 497.64871582 20.13330078 498.24047852 C15.93505148 500.68487039 11.74904718 503.14106486 7.609375 505.68359375 C6.96597168 506.07160156 6.32256836 506.45960938 5.65966797 506.859375 C4.03428381 507.84127602 2.41890271 508.83968751 0.8046875 509.83984375 C-2.70202868 511.29039348 -4.33661894 510.87041391 -8 510 C-10.65527344 508.74755859 -10.65527344 508.74755859 -13.359375 507.1484375 C-14.88884766 506.25415039 -14.88884766 506.25415039 -16.44921875 505.34179688 C-17.53847656 504.69275391 -18.62773437 504.04371094 -19.75 503.375 C-20.90697352 502.69497822 -22.06453713 502.01595953 -23.22265625 501.33789062 C-25.62665148 499.92932676 -28.02805773 498.51649359 -30.42773438 497.10058594 C-35.9283488 493.85983022 -41.46603409 490.68333677 -47 487.5 C-49.16684034 486.25030108 -51.3335065 485.00030011 -53.5 483.75 C-54.5725 483.13125 -55.645 482.5125 -56.75 481.875 C-74.625 471.5625 -74.625 471.5625 -92.5 461.25 C-93.57266113 460.63116943 -94.64532227 460.01233887 -95.75048828 459.37475586 C-97.91557071 458.12564482 -100.08060982 456.87645871 -102.24560547 455.62719727 C-107.68615706 452.48797691 -113.12747216 449.35009437 -118.5703125 446.21484375 C-129.02206199 440.19252671 -139.46299548 434.15330663 -149.875 428.0625 C-159.14032389 422.64352182 -168.44887288 417.30324113 -177.77435303 411.98883057 C-203.72756413 397.19489999 -203.72756413 397.19489999 -211.06074142 392.62763309 C-213.94126298 390.90547043 -213.94126298 390.90547043 -217.10811234 390.0184164 C-221.07046917 388.52305193 -223.19533859 387.2111396 -226 384 C-228.4065628 376.24945346 -227.51057373 367.5288711 -227.36230469 359.52172852 C-227.3589193 356.97885804 -227.36082078 354.43597583 -227.36761475 351.89311218 C-227.37034618 346.42097277 -227.33635448 340.95102926 -227.26876068 335.47934151 C-227.17110247 327.56879096 -227.13997083 319.6590699 -227.12490478 311.7479819 C-227.09866115 298.91232703 -227.01885885 286.07758891 -226.90527344 273.24243164 C-226.79507183 260.77665789 -226.71015785 248.31113342 -226.65917969 235.8449707 C-226.65602701 235.07616491 -226.65287432 234.30735911 -226.64962611 233.51525617 C-226.6339653 229.6582618 -226.61880089 225.80126566 -226.60388327 221.94426835 C-226.47954494 189.96217935 -226.26824439 157.98121709 -226 126 C-63.5 32.25 -63.5 32.25 -60.24658203 30.37304688 C-58.09128689 29.1295949 -55.93601327 27.88610564 -53.78076172 26.64257812 C-48.77662326 23.75537125 -43.7722948 20.8684957 -38.76715088 17.98303223 C-37.01658759 16.97380896 -35.26609589 15.96446164 -33.515625 14.95507812 C-31.33607835 13.6983234 -29.15640168 12.44179414 -26.9765625 11.18554688 C-25.47609375 10.32026367 -25.47609375 10.32026367 -23.9453125 9.4375 C-22.96852539 8.87933594 -21.99173828 8.32117187 -20.98535156 7.74609375 C-18.89766292 6.5250315 -16.8333069 5.26358928 -14.78808594 3.97265625 C-13.74168945 3.32167969 -12.69529297 2.67070313 -11.6171875 2 C-10.68245605 1.401875 -9.74772461 0.80375 -8.78466797 0.1875 C-5.29272615 -1.30161143 -3.61820457 -1.04975891 0 0 Z " fill="#00B3FE" transform="translate(260,1)"/>
<path d="M0 0 C0 84.81 0 169.62 0 257 C-84.5 305.75 -84.5 305.75 -87.75048828 307.62524414 C-89.91557071 308.87435518 -92.08060982 310.12354129 -94.24560547 311.37280273 C-99.68615706 314.51202309 -105.12747216 317.64990563 -110.5703125 320.78515625 C-121.02206199 326.80747329 -131.46299548 332.84669337 -141.875 338.9375 C-151.14096534 344.35685334 -160.44992009 349.69795389 -169.77636719 355.01217651 C-178.16951622 359.79567543 -186.535352 364.62363901 -194.875 369.5 C-195.85936035 370.07508301 -196.8437207 370.65016602 -197.85791016 371.24267578 C-203.1072705 374.30930877 -203.1072705 374.30930877 -208.35546875 377.37792969 C-210.35942105 378.54810112 -212.36649833 379.7126603 -214.375 380.875 C-215.43460937 381.49117188 -216.49421875 382.10734375 -217.5859375 382.7421875 C-220 384 -220 384 -222 384 C-222.29663221 351.52350548 -222.52665879 319.0474016 -222.66384928 286.56986144 C-222.68010826 282.73472311 -222.69693447 278.89958745 -222.71411133 275.06445312 C-222.71752136 274.30095423 -222.7209314 273.53745533 -222.72444477 272.7508201 C-222.78099657 260.39180817 -222.8834855 248.03358317 -223.00298635 235.67503792 C-223.12460307 222.99178923 -223.19677328 210.30895232 -223.22315043 197.62514448 C-223.24098016 189.79942631 -223.29725935 181.97593221 -223.40291407 174.15089887 C-223.47983161 168.1480233 -223.48790793 162.14705599 -223.47039986 156.14363098 C-223.47397709 153.68286447 -223.49985054 151.22201399 -223.54967117 148.76174927 C-223.89829693 130.65808488 -223.89829693 130.65808488 -220.75886893 126.26210976 C-217.31097265 123.08009092 -213.37934177 121.61044869 -209 120 C-206.79621275 118.77255345 -204.60951021 117.51341364 -202.44921875 116.2109375 C-200.19638318 114.93040618 -197.94244231 113.65181782 -195.6875 112.375 C-193.21129555 110.96780165 -190.7363197 109.55845344 -188.26171875 108.1484375 C-187.64569794 107.79755066 -187.02967712 107.44666382 -186.39498901 107.08514404 C-180.57259607 103.76448147 -174.78322638 100.38836939 -169 97 C-159.77214452 91.59618265 -150.50005058 86.27347484 -141.20898438 80.97949219 C-133.11255867 76.36497196 -125.04193491 71.70904745 -117 67 C-108.36502443 61.94369077 -99.69393681 56.95392878 -91 52 C-81.27875494 46.46014067 -71.59105132 40.86625068 -61.93310547 35.21655273 C-52.53377103 29.7199888 -43.10364227 24.27763934 -33.66796875 18.84375 C-29.6001085 16.50089533 -25.53530363 14.15291613 -21.47442627 11.79798889 C-19.04774161 10.39080544 -16.62017349 8.98514985 -14.19256592 7.57955933 C-12.46428102 6.57801958 -10.73725706 5.57430495 -9.01025391 4.57055664 C-7.45636963 3.6713147 -7.45636963 3.6713147 -5.87109375 2.75390625 C-4.95255615 2.22095947 -4.03401855 1.6880127 -3.08764648 1.13891602 C-1 0 -1 0 0 0 Z " fill="#0174F9" transform="translate(478,128)"/>
<path d="M0 0 C4.28456404 1.42818801 7.1910008 2.51298523 10.921875 4.73046875 C11.85112793 5.27823975 12.78038086 5.82601074 13.73779297 6.39038086 C15.22883545 7.27995483 15.22883545 7.27995483 16.75 8.1875 C18.91367549 9.46419778 21.07775166 10.74021671 23.2421875 12.015625 C24.35819336 12.67498047 25.47419922 13.33433594 26.62402344 14.01367188 C32.0212633 17.18925356 37.44764 20.3137656 42.875 23.4375 C45.05991376 24.69658348 47.24480949 25.95569823 49.4296875 27.21484375 C50.51475586 27.83987793 51.59982422 28.46491211 52.71777344 29.10888672 C58.14659942 32.23680148 63.57319281 35.36858448 69 38.5 C71.16665583 39.75001879 73.3333225 41.00001878 75.5 42.25 C108 61 108 61 140.5 79.75 C141.57266113 80.36883057 142.64532227 80.98766113 143.75048828 81.62524414 C145.91557071 82.87435518 148.08060982 84.12354129 150.24560547 85.37280273 C155.68615706 88.51202309 161.12747216 91.64990563 166.5703125 94.78515625 C180.13110509 102.5986886 193.66686512 110.4536897 207.17871094 118.3515625 C212.11748369 121.23721443 217.05882765 124.11845949 222 127 C219.60030318 129.65565787 217.03555811 131.27998553 213.93359375 133.046875 C212.90427734 133.63662109 211.87496094 134.22636719 210.81445312 134.83398438 C209.70005859 135.46626953 208.58566406 136.09855469 207.4375 136.75 C206.26598539 137.41941347 205.09476624 138.08934426 203.92382812 138.75976562 C201.49056166 140.15239997 199.05603768 141.54279747 196.62060547 142.93164062 C191.06842436 146.10029749 185.5351647 149.30174526 180 152.5 C177.83603812 153.74887228 175.67197524 154.99756957 173.5078125 156.24609375 C171.8995459 157.17397705 171.8995459 157.17397705 170.25878906 158.12060547 C166.98300434 160.00980166 163.70644107 161.89764109 160.4296875 163.78515625 C149.97793801 169.80747329 139.53700452 175.84669337 129.125 181.9375 C119.85436069 187.35958699 110.54063301 192.70324012 101.20953369 198.02023315 C93.11292157 202.63484029 85.04211199 207.29084886 77 212 C68.36502471 217.05630906 59.69394979 222.04609403 51 227 C40.10760109 233.20713165 29.25764092 239.48398853 18.4375 245.81640625 C17.56222656 246.3283252 16.68695313 246.84024414 15.78515625 247.36767578 C13.74942903 248.56077468 11.71587372 249.75758157 9.68359375 250.95654297 C8.59175781 251.59865723 7.49992187 252.24077148 6.375 252.90234375 C5.37210937 253.49394287 4.36921875 254.08554199 3.3359375 254.69506836 C1 256 1 256 0 256 C0 171.52 0 87.04 0 0 Z " fill="#00B2FD" transform="translate(256,0)"/>
<path d="M0 0 C0 84.48 0 168.96 0 256 C-8.88399816 251.26186765 -17.65991164 246.54997919 -26.3125 241.4375 C-28.39419721 240.21557657 -30.47624071 238.99424294 -32.55859375 237.7734375 C-34.14776611 236.84096191 -34.14776611 236.84096191 -35.76904297 235.88964844 C-41.12439285 232.75753357 -46.49928772 229.65949655 -51.875 226.5625 C-52.95434814 225.94044678 -54.03369629 225.31839355 -55.14575195 224.67749023 C-57.33632735 223.41519376 -59.52700131 222.1530683 -61.71777344 220.89111328 C-67.14659942 217.76319852 -72.57319281 214.63141552 -78 211.5 C-80.16665583 210.24998121 -82.3333225 208.99998122 -84.5 207.75 C-106.16666667 195.25 -127.83333333 182.75 -149.5 170.25 C-150.57266113 169.63116943 -151.64532227 169.01233887 -152.75048828 168.37475586 C-154.91557071 167.12564482 -157.08060982 165.87645871 -159.24560547 164.62719727 C-164.68615706 161.48797691 -170.12747216 158.35009437 -175.5703125 155.21484375 C-180.96389391 152.10761524 -186.35458642 148.99542384 -191.74365234 145.88037109 C-193.96950906 144.59505482 -196.19644812 143.31161156 -198.42431641 142.02978516 C-201.76459484 140.10757182 -205.10136305 138.17938995 -208.4375 136.25 C-209.45666504 135.66532959 -210.47583008 135.08065918 -211.52587891 134.47827148 C-212.4647998 133.93372314 -213.4037207 133.3891748 -214.37109375 132.828125 C-215.19536865 132.3527832 -216.01964355 131.87744141 -216.86889648 131.38769531 C-218.86680513 130.08673155 -220.39593283 128.75318493 -222 127 C-59.5 33.25 -59.5 33.25 -56.24658203 31.37304688 C-54.09128689 30.1295949 -51.93601327 28.88610564 -49.78076172 27.64257812 C-44.77662326 24.75537125 -39.7722948 21.8684957 -34.76715088 18.98303223 C-33.01658759 17.97380896 -31.26609589 16.96446164 -29.515625 15.95507812 C-27.33607835 14.6983234 -25.15640168 13.44179414 -22.9765625 12.18554688 C-21.47609375 11.32026367 -21.47609375 11.32026367 -19.9453125 10.4375 C-18.97368164 9.87804688 -18.00205078 9.31859375 -17.00097656 8.7421875 C-14.87646335 7.5088222 -12.75930869 6.26274096 -10.64746094 5.0078125 C-9.5649707 4.36585938 -8.48248047 3.72390625 -7.3671875 3.0625 C-6.3860498 2.47597656 -5.40491211 1.88945312 -4.39404297 1.28515625 C-2 0 -2 0 0 0 Z " fill="#00F4FE" transform="translate(256,0)"/>
</svg>
